<svg width="110" height="110" viewBox="0 0 110 110" fill="none" xmlns="http://www.w3.org/2000/svg">
<path d="M100.833 50.4167L94.8927 44.4767C93.8701 43.4457 92.6535 42.6273 91.313 42.0689C89.9726 41.5104 88.5348 41.2229 87.0827 41.2229C85.6306 41.2229 84.1928 41.5104 82.8523 42.0689C81.5119 42.6273 80.2953 43.4457 79.2727 44.4767L50.416 73.3333" stroke="white" stroke-width="4" stroke-linecap="round" stroke-linejoin="round"/>
<path d="M18.3327 36.6667C15.9015 36.6667 13.57 37.6324 11.8509 39.3515C10.1318 41.0706 9.16602 43.4022 9.16602 45.8333V91.6667C9.16602 94.0978 10.1318 96.4294 11.8509 98.1485C13.57 99.8676 15.9015 100.833 18.3327 100.833H64.166C66.5972 100.833 68.9287 99.8676 70.6478 98.1485C72.3669 96.4294 73.3327 94.0978 73.3327 91.6667" stroke="white" stroke-width="4" stroke-linecap="round" stroke-linejoin="round"/>
<path d="M59.5833 36.6667C62.1146 36.6667 64.1667 34.6146 64.1667 32.0833C64.1667 29.552 62.1146 27.5 59.5833 27.5C57.052 27.5 55 29.552 55 32.0833C55 34.6146 57.052 36.6667 59.5833 36.6667Z" fill="white" stroke="white" stroke-width="4" stroke-linecap="round" stroke-linejoin="round"/>
<path d="M91.666 9.16666H45.8327C40.7701 9.16666 36.666 13.2707 36.666 18.3333V64.1667C36.666 69.2293 40.7701 73.3333 45.8327 73.3333H91.666C96.7286 73.3333 100.833 69.2293 100.833 64.1667V18.3333C100.833 13.2707 96.7286 9.16666 91.666 9.16666Z" stroke="white" stroke-width="4" stroke-linecap="round" stroke-linejoin="round"/>
</svg>
